<svg data-v-423bf9ae="" xmlns="http://www.w3.org/2000/svg" viewBox="0 0 228.3598893344533 60" class="font"><!----><!----><!----><g data-v-423bf9ae="" id="7cd4a7a3-47a1-438e-84e3-edad0b5d3f84" fill="white" transform="matrix(5.6232428550720215,0,0,5.6232428550720215,-2.3617711067199707,-8.463189260510262e-7)"><path d="M2.91 0L0.45 0.34L0.52 0.91L1.65 1.12L1.65 9.66L0.42 10.08L0.42 10.50L3.96 10.50L4.10 9.83L2.91 9.63ZM11.38 6.75C11.38 5.00 10.88 3.11 8.39 3.11C6.78 3.11 5.01 4.35 5.01 6.83C5.01 9.25 6.58 10.63 8.43 10.63C9.37 10.63 10.36 10.28 11.27 9.56L10.96 9.03C10.25 9.49 9.56 9.72 8.90 9.72C7.49 9.72 6.41 8.60 6.41 6.75ZM6.45 5.99C6.50 4.62 7.46 3.86 8.34 3.86C9.18 3.86 9.98 4.52 9.98 5.99ZM17.04 9.20C16.46 9.55 16.04 9.69 15.61 9.69C14.90 9.69 14.80 9.38 14.80 8.36L14.80 4.24L17.04 4.24L17.04 3.47L14.80 3.47L14.80 1.79L14.10 1.79L13.61 3.33L12.43 3.75L12.43 4.24L13.54 4.24L13.54 8.69C13.54 9.83 13.89 10.67 15.12 10.67C15.96 10.67 16.87 10.21 17.30 9.53ZM25.24 3.63L25.94 3.49L25.94 1.12C25.09 0.73 24.22 0.55 23.37 0.55C20.61 0.55 18.14 2.45 18.14 5.61C18.14 8.90 20.37 10.63 22.92 10.63C24.30 10.63 25.27 10.22 26.07 9.83L26.07 7.46L25.35 7.32L24.85 9.46C24.42 9.67 23.97 9.84 23.25 9.84C21.31 9.84 19.61 8.78 19.61 5.61C19.61 2.69 21.32 1.32 23.13 1.32C23.69 1.32 24.32 1.37 24.77 1.65ZM27.36 10.16C27.96 10.43 28.87 10.64 29.78 10.64C31.19 10.64 32.55 10.12 32.55 8.47C32.55 6.22 28.80 6.59 28.80 4.90C28.80 4.12 29.44 3.89 30.16 3.89C30.60 3.89 30.80 3.93 31.12 4.03L31.50 5.46L32.23 5.33L32.23 3.58C31.95 3.30 31.22 3.12 30.42 3.12C29.06 3.12 27.50 3.65 27.50 5.11C27.50 7.46 31.29 7.06 31.23 8.68C31.22 9.52 30.63 9.87 29.79 9.87C29.25 9.87 28.95 9.76 28.46 9.55L28.08 8.16L27.36 8.29ZM39.21 4.03L37.31 8.81L35.42 3.99L36.43 3.64L36.43 3.22L33.21 3.22L33.07 3.85L34.08 4.03L36.64 10.50L37.46 10.50L40.03 4.06L41.03 3.64L41.03 3.22L38.36 3.22L38.22 3.89Z"></path></g><!----><!----></svg>