<svg data-v-423bf9ae="" xmlns="http://www.w3.org/2000/svg" viewBox="0 0 2297 2560" class="iconLeft"><!----><!----><defs data-v-423bf9ae=""><linearGradient data-v-423bf9ae="" gradientTransform="rotate(25)" id="99e458c0-efa7-49f8-8dbb-1342470c7b25" x1="0%" y1="0%" x2="100%" y2="0%"><stop data-v-423bf9ae="" offset="0%" style="stop-color: rgb(214, 214, 214); stop-opacity: 1;"></stop><stop data-v-423bf9ae="" offset="100%" style="stop-color: rgb(131, 190, 77); stop-opacity: 1;"></stop></linearGradient></defs><g data-v-423bf9ae="" id="21dfae7d-699b-44f4-a125-dda8c112f107" fill="url(#99e458c0-efa7-49f8-8dbb-1342470c7b25)" transform="matrix(5.6232428550720215,0,0,5.6232428550720215,2065.63818359375,1250)"><path d="M2.91 0L0.45 0.34L0.52 0.91L1.65 1.12L1.65 9.66L0.42 10.08L0.42 10.50L3.96 10.50L4.10 9.83L2.91 9.63ZM11.38 6.75C11.38 5.00 10.88 3.11 8.39 3.11C6.78 3.11 5.01 4.35 5.01 6.83C5.01 9.25 6.58 10.63 8.43 10.63C9.37 10.63 10.36 10.28 11.27 9.56L10.96 9.03C10.25 9.49 9.56 9.72 8.90 9.72C7.49 9.72 6.41 8.60 6.41 6.75ZM6.45 5.99C6.50 4.62 7.46 3.86 8.34 3.86C9.18 3.86 9.98 4.52 9.98 5.99ZM17.04 9.20C16.46 9.55 16.04 9.69 15.61 9.69C14.90 9.69 14.80 9.38 14.80 8.36L14.80 4.24L17.04 4.24L17.04 3.47L14.80 3.47L14.80 1.79L14.10 1.79L13.61 3.33L12.43 3.75L12.43 4.24L13.54 4.24L13.54 8.69C13.54 9.83 13.89 10.67 15.12 10.67C15.96 10.67 16.87 10.21 17.30 9.53ZM25.24 3.63L25.94 3.49L25.94 1.12C25.09 0.73 24.22 0.55 23.37 0.55C20.61 0.55 18.14 2.45 18.14 5.61C18.14 8.90 20.37 10.63 22.92 10.63C24.30 10.63 25.27 10.22 26.07 9.83L26.07 7.46L25.35 7.32L24.85 9.46C24.42 9.67 23.97 9.84 23.25 9.84C21.31 9.84 19.61 8.78 19.61 5.61C19.61 2.69 21.32 1.32 23.13 1.32C23.69 1.32 24.32 1.37 24.77 1.65ZM27.36 10.16C27.96 10.43 28.87 10.64 29.78 10.64C31.19 10.64 32.55 10.12 32.55 8.47C32.55 6.22 28.80 6.59 28.80 4.90C28.80 4.12 29.44 3.89 30.16 3.89C30.60 3.89 30.80 3.93 31.12 4.03L31.50 5.46L32.23 5.33L32.23 3.58C31.95 3.30 31.22 3.12 30.42 3.12C29.06 3.12 27.50 3.65 27.50 5.11C27.50 7.46 31.29 7.06 31.23 8.68C31.22 9.52 30.63 9.87 29.79 9.87C29.25 9.87 28.95 9.76 28.46 9.55L28.08 8.16L27.36 8.29ZM39.21 4.03L37.31 8.81L35.42 3.99L36.43 3.64L36.43 3.22L33.21 3.22L33.07 3.85L34.08 4.03L36.64 10.50L37.46 10.50L40.03 4.06L41.03 3.64L41.03 3.22L38.36 3.22L38.22 3.89Z"></path></g><defs data-v-423bf9ae=""><linearGradient data-v-423bf9ae="" gradientTransform="rotate(25)" id="76c82ada-130f-4f6b-9f28-54aa5e937dca" x1="0%" y1="0%" x2="100%" y2="0%"><stop data-v-423bf9ae="" offset="0%" style="stop-color: rgb(214, 214, 214); stop-opacity: 1;"></stop><stop data-v-423bf9ae="" offset="100%" style="stop-color: rgb(131, 190, 77); stop-opacity: 1;"></stop></linearGradient></defs><g data-v-423bf9ae="" id="4b97c855-9102-4dfe-b98a-abc7acc06ec8" transform="matrix(5.333333492279053,0,0,5.333333492279053,-341.3333740234375,-85.3333740234375)" stroke="none" fill="url(#76c82ada-130f-4f6b-9f28-54aa5e937dca)"><path d="M349.657 18.343A8 8 0 0 0 344 16H120a56.063 56.063 0 0 0-56 56v368a56.063 56.063 0 0 0 56 56h272a56.063 56.063 0 0 0 56-56V120a8 8 0 0 0-2.343-5.657zM352 43.313L420.687 112H392a40.045 40.045 0 0 1-40-40zM120 32h216v40a56.063 56.063 0 0 0 56 56h40v224H80V72a40.045 40.045 0 0 1 40-40zm272 448H120a40.045 40.045 0 0 1-40-40v-72h352v72a40.045 40.045 0 0 1-40 40z"></path><path d="M256 400h16a8 8 0 0 0 0-16h-16a24 24 0 0 0 0 48 8 8 0 0 1 0 16h-16a8 8 0 0 0 0 16h16a24 24 0 0 0 0-48 8 8 0 0 1 0-16zM337.94 384.239a8 8 0 0 0-9.7 5.821L320 423.016l-8.239-32.956a8 8 0 1 0-15.522 3.88l16 64a8 8 0 0 0 15.522 0l16-64a8 8 0 0 0-5.821-9.701zM200 400a10.675 10.675 0 0 1 4.588 1.058 8 8 0 0 0 6.824-14.473A26.587 26.587 0 0 0 200 384c-17.645 0-32 17.944-32 40s14.355 40 32 40a26.587 26.587 0 0 0 11.412-2.585 8 8 0 0 0-6.824-14.473A10.675 10.675 0 0 1 200 448c-8.673 0-16-10.99-16-24s7.327-24 16-24zM160 256a8 8 0 0 0 0 16h24v24a8 8 0 0 0 16 0v-24h48v24a8 8 0 0 0 16 0v-24h48v24a8 8 0 0 0 16 0v-24h24a8 8 0 0 0 0-16h-24v-32h24a8 8 0 0 0 0-16h-24v-32h24a8 8 0 0 0 0-16h-24v-24a8 8 0 0 0-16 0v24h-48v-24a8 8 0 0 0-16 0v24h-48v-24a8 8 0 0 0-16 0v24h-24a8 8 0 0 0 0 16h24v32h-24a8 8 0 0 0 0 16h24v32zm152 0h-48v-32h48zm0-80v32h-48v-32zm-112 0h48v32h-48zm0 48h48v32h-48z"></path></g><!----></svg>